# xmcd CD database file
#
# Track frame offsets:
#	150
#	22955
#	44567
#	56887
#	74911
#	95953
#	122800
#	146169
#	177211
#	197413
#	213689
#	234321
#	257285
#	270288
#	286230
#
# Disc length: 4210 seconds
#
# Revision: 0
# Processed by: cddbd v1.5.2PL0 Copyright (c) Steve Scherf et al.
# Submitted via: CDex 1.70beta2
#
DISCID=e810700f
DTITLE=Various Artist - EL Nuevo Latina Cafe Vol 1 [Disc 2]
DYEAR=1900
DGENRE=New Age
TTITLE0=Otao E Eu_Nicos Jaritz
TTITLE1=Skindo Lele (S.U.M.O. Rebounce)_A Bossa Electrica
TTITLE2=Sambamadness_DJ Graham B
TTITLE3=Welcome To The Party_Har-You Percussion Group
TTITLE4=Tubu_Don Cunningham Quartet
TTITLE5=Ipe Amarelo_quasimode
TTITLE6=Bite The Night_Gerardo Frisina
TTITLE7=Aqui Se Faz Aqui Se Paga (Groove Assassin Sunrise Mix)_Mustafa
TTITLE8=El Norte_Gotan Project
TTITLE9=Belle's Poem_Juryman Feat. Cibelle
TTITLE10=Samba Noir_Toco
TTITLE11=Samba Meu Dom_The Ipanemas
TTITLE12=Que Bandeira_Rosalia De Souza
TTITLE13=Psycodelico_Reminiscence Quartett Feat. Nancy Danino
TTITLE14=Galicia_Try Trio
EXTD=
EXTT0=
EXTT1=
EXTT2=
EXTT3=
EXTT4=
EXTT5=
EXTT6=
EXTT7=
EXTT8=
EXTT9=
EXTT10=
EXTT11=
EXTT12=
EXTT13=
EXTT14=
PLAYORDER=
